<svg width="68" height="60" viewBox="0 0 68 60" fill="none" xmlns="http://www.w3.org/2000/svg">
<path d="M34 0C15.3 0 0 11.9333 0 26.6667C0.0853687 30.209 0.96773 33.6891 2.58404 36.8583C4.20034 40.0275 6.51069 42.8077 9.35 45C9.35 47 7.922 52.2333 0 60C8.058 59.6333 15.776 56.6667 21.998 51.6667C25.874 52.7667 29.954 53.3333 34 53.3333C52.7 53.3333 68 41.4 68 26.6667C68 11.9333 52.7 0 34 0ZM34 46.6667C18.972 46.6667 6.8 37.7 6.8 26.6667C6.8 15.6333 18.972 6.66667 34 6.66667C49.028 6.66667 61.2 15.6333 61.2 26.6667C61.2 37.7 49.028 46.6667 34 46.6667Z" fill="#5FA8D3"/>
</svg>
