<svg width="23" height="21" viewBox="0 0 23 21" fill="none" xmlns="http://www.w3.org/2000/svg">
<path d="M17.3625 21C16.1514 21 14.876 20.7363 13.5578 20.2284C12.2717 19.7302 10.9748 19.0465 9.71016 18.2163C8.4562 17.3763 7.24511 16.4386 6.09832 15.413C4.96226 14.3679 3.93336 13.2642 3.02237 12.1312C2.10065 10.9591 1.36114 9.78698 0.835974 8.65395C0.278658 7.44279 0 6.2707 0 5.16698C0 4.40512 0.150047 3.68233 0.439422 3.00837C0.739515 2.31488 1.22181 1.67023 1.87558 1.11349C2.70084 0.371163 3.64399 0 4.65145 0C5.06943 0 5.49814 0.087907 5.86254 0.244186C6.28052 0.42 6.6342 0.683721 6.89143 1.03535L9.37791 4.2293C9.60298 4.51256 9.77446 4.78605 9.89236 5.05953C10.0317 5.35256 10.1067 5.64558 10.1067 5.92884C10.1067 6.3 9.98882 6.6614 9.76375 7.00326C9.60298 7.26698 9.35648 7.55023 9.04567 7.83349L8.31687 8.52698C8.32759 8.55628 8.3383 8.57581 8.34902 8.59535C8.47763 8.80047 8.73486 9.15209 9.22787 9.67953C9.75303 10.2265 10.246 10.7247 10.7391 11.1837C11.3714 11.7502 11.8966 12.1995 12.3896 12.5707C13.0005 13.0395 13.397 13.274 13.6328 13.3814L13.6114 13.4302L14.3938 12.727C14.726 12.4242 15.0475 12.1995 15.3583 12.053C15.9478 11.7209 16.698 11.6623 17.4483 11.9456C17.7269 12.053 18.027 12.1995 18.3486 12.4047L21.9068 14.7098C22.3034 14.954 22.5927 15.2665 22.7642 15.6377C22.925 16.0088 23 16.3507 23 16.6926C23 17.1614 22.8821 17.6302 22.657 18.0698C22.432 18.5093 22.1533 18.8902 21.7996 19.2419C21.1887 19.8572 20.5242 20.2967 19.7526 20.58C19.013 20.8535 18.2092 21 17.3625 21ZM4.65145 1.46512C4.06198 1.46512 3.51538 1.69953 2.99021 2.16837C2.4972 2.58837 2.15424 3.04744 1.93989 3.54558C1.71482 4.05349 1.60764 4.5907 1.60764 5.16698C1.60764 6.07535 1.84343 7.06186 2.315 8.07767C2.7973 9.11302 3.47251 10.1874 4.32992 11.2619C5.18733 12.3363 6.16263 13.3814 7.23439 14.3679C8.30615 15.3349 9.46365 16.2335 10.6533 17.0247C11.8108 17.7963 13.0005 18.4214 14.1794 18.8707C16.0121 19.5837 17.7269 19.7498 19.1417 19.2126C19.6883 19.0074 20.1706 18.6949 20.61 18.2456C20.8565 18.0014 21.0494 17.7377 21.2102 17.4251C21.3388 17.1809 21.4031 16.927 21.4031 16.673C21.4031 16.5167 21.3709 16.3605 21.2852 16.1847C21.253 16.126 21.1887 16.0186 20.9851 15.8916L17.4268 13.5865C17.2125 13.4498 17.0196 13.3521 16.8374 13.2837C16.6016 13.1958 16.5051 13.1079 16.1407 13.313C15.9264 13.4107 15.7335 13.5572 15.5191 13.7526L14.7046 14.4851C14.2866 14.8563 13.6435 14.9442 13.1505 14.7781L12.8611 14.6609C12.4217 14.446 11.9073 14.114 11.3392 13.6744C10.8248 13.274 10.2675 12.8051 9.59227 12.1995C9.0671 11.7112 8.54194 11.1935 7.99534 10.6172C7.49161 10.08 7.12721 9.62093 6.90214 9.24L6.77353 8.94698C6.70923 8.72233 6.68779 8.59535 6.68779 8.4586C6.68779 8.10698 6.82712 7.79442 7.09506 7.55023L7.89888 6.78837C8.11323 6.59302 8.274 6.40744 8.38117 6.2414C8.46692 6.11442 8.49907 6.00698 8.49907 5.9093C8.49907 5.83116 8.46692 5.71395 8.41333 5.59674C8.3383 5.44047 8.22041 5.26465 8.07036 5.07907L5.58388 1.87535C5.4767 1.7386 5.34809 1.64093 5.18733 1.57256C5.01584 1.50419 4.83364 1.46512 4.65145 1.46512ZM13.6114 13.44L13.4399 14.1042L13.7293 13.4205C13.6757 13.4107 13.6328 13.4205 13.6114 13.44Z" fill="white"/>
</svg>
