<svg width="90" height="90" viewBox="0 0 90 90" fill="none" xmlns="http://www.w3.org/2000/svg">
<path d="M75.5573 5.48402C72.0458 1.97265 67.2833 0 62.3174 0C57.3515 0 52.589 1.97265 49.0776 5.48402L13.394 41.1641C9.95601 44.6905 8.04584 49.4295 8.07729 54.3544C8.10873 59.2793 10.0793 63.9935 13.562 67.4758C17.0447 70.958 21.7592 72.9279 26.6841 72.9587C31.6089 72.9895 36.3477 71.0787 39.8737 67.6403L75.5608 31.9602C79.0663 28.4461 81.0347 23.685 81.034 18.7214C81.0334 13.7578 79.0637 8.99715 75.5573 5.48402ZM35.8975 63.6641C33.4411 66.121 30.1093 67.5014 26.6351 67.5017C23.1608 67.5021 19.8288 66.1223 17.3719 63.6659C14.915 61.2094 13.5346 57.8776 13.5343 54.4034C13.5339 50.9292 14.9137 47.5971 17.3702 45.1403L33.2221 29.2883L51.7494 47.8121L35.8975 63.6641ZM71.5811 27.984L55.7221 43.836L37.2018 25.3121L53.0573 9.46019C55.5234 7.05101 58.8399 5.7112 62.2875 5.73134C65.735 5.75148 69.0357 7.12996 71.4735 9.56779C73.9113 12.0056 75.2898 15.3062 75.3099 18.7538C75.3301 22.2014 73.9903 25.5179 71.5811 27.984ZM66.1565 20.5098C66.418 20.771 66.6254 21.0812 66.767 21.4226C66.9085 21.7641 66.9813 22.13 66.9813 22.4996C66.9813 22.8692 66.9085 23.2352 66.767 23.5767C66.6254 23.9181 66.418 24.2283 66.1565 24.4895L57.719 32.927C57.4577 33.1881 57.1475 33.3951 56.8062 33.5363C56.4648 33.6775 56.099 33.7501 55.7297 33.75C55.3603 33.7498 54.9945 33.6769 54.6533 33.5354C54.3121 33.3939 54.0021 33.1865 53.7411 32.9252C53.48 32.6639 53.2729 32.3537 53.1317 32.0124C52.9905 31.6711 52.9179 31.3053 52.9181 30.9359C52.9182 30.5665 52.9912 30.2008 53.1327 29.8596C53.2742 29.5184 53.4815 29.2084 53.7428 28.9473L62.1803 20.5098C62.7077 19.9827 63.4228 19.6867 64.1684 19.6867C64.914 19.6867 65.6291 19.9827 66.1565 20.5098Z" fill="#5FA8D3"/>
</svg>
