<svg width="134" height="66" viewBox="0 0 134 66" fill="none" xmlns="http://www.w3.org/2000/svg">
<path d="M27.7932 2.16V9.648H18.7692V36H9.36119V9.648H0.433188V2.16H27.7932ZM29.7379 22.512C29.7379 19.728 30.2339 17.296 31.2259 15.216C32.2499 13.136 33.6259 11.536 35.3539 10.416C37.1139 9.296 39.0659 8.736 41.2099 8.736C43.0659 8.736 44.6659 9.104 46.0099 9.84C47.3539 10.576 48.3939 11.568 49.1299 12.816V9.072H58.5379V36H49.1299V32.256C48.3939 33.504 47.3379 34.496 45.9619 35.232C44.6179 35.968 43.0339 36.336 41.2099 36.336C39.0659 36.336 37.1139 35.776 35.3539 34.656C33.6259 33.536 32.2499 31.936 31.2259 29.856C30.2339 27.744 29.7379 25.296 29.7379 22.512ZM49.1299 22.512C49.1299 20.784 48.6499 19.424 47.6899 18.432C46.7619 17.44 45.6099 16.944 44.2339 16.944C42.8259 16.944 41.6579 17.44 40.7299 18.432C39.8019 19.392 39.3379 20.752 39.3379 22.512C39.3379 24.24 39.8019 25.616 40.7299 26.64C41.6579 27.632 42.8259 28.128 44.2339 28.128C45.6099 28.128 46.7619 27.632 47.6899 26.64C48.6499 25.648 49.1299 24.272 49.1299 22.512ZM73.3069 0.48V36H63.8989V0.48H73.3069ZM95.5126 36L88.0726 24.96V36H78.6646V0.48H88.0726V19.632L95.5126 9.072H106.793L96.1846 22.608L106.985 36H95.5126ZM108.639 28.464C111.743 26.032 114.287 23.936 116.271 22.176C118.255 20.416 119.919 18.608 121.263 16.752C122.607 14.864 123.279 13.072 123.279 11.376C123.279 10.352 123.039 9.552 122.559 8.976C122.111 8.4 121.439 8.112 120.543 8.112C119.615 8.112 118.895 8.512 118.383 9.312C117.871 10.08 117.631 11.216 117.663 12.72H108.543C108.639 9.872 109.263 7.52 110.415 5.664C111.567 3.776 113.071 2.4 114.927 1.536C116.783 0.639997 118.847 0.191998 121.119 0.191998C125.055 0.191998 127.983 1.168 129.903 3.12C131.823 5.072 132.783 7.6 132.783 10.704C132.783 14.032 131.663 17.152 129.423 20.064C127.215 22.976 124.447 25.584 121.119 27.888H133.119V35.52H108.639V28.464ZM35.5956 31.16C39.1476 31.16 42.2516 31.88 44.9076 33.32C47.5956 34.728 49.6596 36.712 51.0996 39.272C52.5396 41.832 53.2596 44.76 53.2596 48.056C53.2596 51.32 52.5236 54.232 51.0516 56.792C49.6116 59.352 47.5476 61.368 44.8596 62.84C42.2036 64.28 39.1156 65 35.5956 65H22.2036V31.16H35.5956ZM34.8756 56.696C37.6276 56.696 39.7876 55.944 41.3556 54.44C42.9236 52.936 43.7076 50.808 43.7076 48.056C43.7076 45.272 42.9236 43.128 41.3556 41.624C39.7876 40.088 37.6276 39.32 34.8756 39.32H31.6116V56.696H34.8756ZM70.0285 65.336C67.3405 65.336 64.9245 64.776 62.7805 63.656C60.6685 62.536 59.0045 60.936 57.7885 58.856C56.5725 56.776 55.9645 54.328 55.9645 51.512C55.9645 48.728 56.5725 46.296 57.7885 44.216C59.0365 42.136 60.7165 40.536 62.8285 39.416C64.9725 38.296 67.3885 37.736 70.0765 37.736C72.7645 37.736 75.1645 38.296 77.2765 39.416C79.4205 40.536 81.1005 42.136 82.3165 44.216C83.5645 46.296 84.1885 48.728 84.1885 51.512C84.1885 54.296 83.5645 56.744 82.3165 58.856C81.1005 60.936 79.4205 62.536 77.2765 63.656C75.1325 64.776 72.7165 65.336 70.0285 65.336ZM70.0285 57.176C71.3405 57.176 72.4285 56.696 73.2925 55.736C74.1885 54.744 74.6365 53.336 74.6365 51.512C74.6365 49.688 74.1885 48.296 73.2925 47.336C72.4285 46.376 71.3565 45.896 70.0765 45.896C68.7965 45.896 67.7245 46.376 66.8605 47.336C65.9965 48.296 65.5645 49.688 65.5645 51.512C65.5645 53.368 65.9805 54.776 66.8125 55.736C67.6445 56.696 68.7165 57.176 70.0285 57.176ZM86.4801 51.512C86.4801 48.728 87.0561 46.296 88.2081 44.216C89.3601 42.136 90.9601 40.536 93.0081 39.416C95.0881 38.296 97.4561 37.736 100.112 37.736C103.536 37.736 106.416 38.68 108.752 40.568C111.088 42.424 112.592 45.032 113.264 48.392H103.28C102.704 46.632 101.584 45.752 99.9201 45.752C98.7361 45.752 97.7921 46.248 97.0881 47.24C96.4161 48.2 96.0801 49.624 96.0801 51.512C96.0801 53.4 96.4161 54.84 97.0881 55.832C97.7921 56.824 98.7361 57.32 99.9201 57.32C101.616 57.32 102.736 56.44 103.28 54.68H113.264C112.592 58.008 111.088 60.616 108.752 62.504C106.416 64.392 103.536 65.336 100.112 65.336C97.4561 65.336 95.0881 64.776 93.0081 63.656C90.9601 62.536 89.3601 60.936 88.2081 58.856C87.0561 56.776 86.4801 54.328 86.4801 51.512Z" fill="#5FA8D3"/>
</svg>
